<?xml version="1.0" encoding="utf-8"?>
<!-- Generator: Adobe Illustrator 27.9.0, SVG Export Plug-In . SVG Version: 6.00 Build 0)  -->
<svg version="1.1" id="Layer_1" xmlns="http://www.w3.org/2000/svg" xmlns:xlink="http://www.w3.org/1999/xlink" x="0px" y="0px"
	 viewBox="0 0 421.6 625.5" style="enable-background:new 0 0 421.6 625.5;" xml:space="preserve">
<style type="text/css">
	.st0{fill:#7BDAD7;}
</style>
<path class="st0" d="M274.9,297c-14.3-0.1-28.5,2.7-41.7,8.2c-4.4,1.9-8.7,4.2-12.8,6.8c2.7-23.5,6.9-48.8,13.9-67.7
	c3.7-10.1,8-20.6,13-31.3c50.7,19.1,101.1-16.1,125.1-50.8c42-60.8,49.3-160.6,49.3-160.6c-16.9-4.5-137.9-4.4-207.1,68.8
	c-36.8,38.9-32.9,87.8-2.3,119.5c5.6-19.1,35.9-106.7,134.4-147.1c0,0-73.1,47.8-112.9,138.3c-3.3,7.6-6.3,14.1-8.9,19.7l0,0
	c-5.6,11.9-10.4,23.5-14.5,34.6c-3.3,9-6.1,17.7-8.6,25.9c-5.6-8.8-11.6-17.2-18.2-25.3c-5.3-6.5-10.9-12.8-16.9-18.7
	c-0.4-0.5-0.7-0.9-1.1-1.4c-43.7-55.5-106.4-66.2-106.4-66.2c66.2-0.4,113.1,49.9,125,64c6.9-24.3-1.8-51.1-28.6-68.1
	C94.7,107.2,10.9,128.3,0,134.4c0,0,22.6,67.8,62.4,102.5c24.7,21.5,71.1,38.1,103.6,6.6c0.5,0.6,1.1,1.2,1.6,1.8
	c10.5,12.7,19.8,26.3,27.6,40.8c-1.6,18.6-2.8,33.1-3.6,44.5c-0.2-0.2-0.5-0.5-0.7-0.7c-0.5,5.5-1.1,11.7-1.6,18.2
	c-2,22.6-4.3,49.1-5.1,64.1c-0.4,6.8-2.2,13.5-5.2,19.7c-2.5,5.2-5.6,10.1-9.2,14.5c-3.8,4.7-8.2,9-13,12.7
	c-4.4,3.3-10.7,2.3-13.9-2.1c-3.3-4.4-2.3-10.7,2.1-13.9l0,0l0.3-0.2l1.2-1c1.1-0.9,2.6-2.3,4.3-4c4.2-4.2,7.6-9.1,10.2-14.4
	c1.9-3.9,3-8.1,3.3-12.4c1.4-24.4,6.2-76.5,8.2-97.3c-5-3.3-10.2-6.2-15.7-8.6c-13.2-5.5-27.4-8.3-41.7-8.2
	C84,297,52.5,309.5,31,333.2c-16.5,18.3-24.6,45.2-24.7,74.3c0.2,41.9,16.1,82.2,44.6,112.9C71.7,542.6,97.7,564,123,582
	s49.9,32.7,68.5,41.7h0.1l3.5,1.8l3.6-2c18.5-8.9,43.1-23.6,68.3-41.6c25.3-18,51.2-39.4,72.1-61.6c30.6-32.6,44.6-74.9,44.6-112.9
	c0-29.1-8.2-56-24.7-74.3C337.5,309.5,306,297,274.9,297z"/>
</svg>
