<?xml version="1.0" encoding="UTF-8"?>
<svg id="Layer_2" data-name="Layer 2" xmlns="http://www.w3.org/2000/svg" viewBox="0 0 99.34 121.33">
  <defs>
    <style>
      .cls-1 {
        fill: #7a9344;
      }

      .cls-1, .cls-2 {
        stroke-width: 0px;
      }

      .cls-2 {
        fill: #b9e3ff;
      }
    </style>
  </defs>
  <g id="Layer_2-2" data-name="Layer 2">
    <g>
      <path class="cls-1" d="m60.01,52.47c1.24-1.8,2.17-3.33,3.26-4.71,5.13-6.5,11.3-11.29,18.16-14.93,1.17-.62,1.69-1.56,1.54-2.92-.14-1.21-.76-1.96-1.77-2.13-.45-.08-.98,0-1.39.22-9.17,5.09-17.7,11.22-23.93,20.88-2.58,4-4.12,8.49-3.94,13.62,0,.21.04.41.07.77.47,0,.9,0,1.33,0,9.07,0,18.14,0,27.22,0,2.34,0,3.01.78,3.01,3.53,0,3.86,0,7.73,0,11.59,0,2.56-.71,3.37-2.93,3.37-20.6,0-41.21,0-61.81,0-2.34,0-2.99-.77-3-3.55,0-3.78,0-7.56,0-11.33,0-2.85.65-3.61,3.05-3.61,9,0,18,0,27,0h1.58c0-1.03.03-1.96,0-2.88-.11-3.12.01-6.3-.44-9.35-.35-2.39-1.14-4.85-2.23-6.91-5.67-10.63-12.45-20.18-21.05-27.81-1.34-1.19-2.77-2.26-4.2-3.3-1.29-.93-2.5-.66-3.21.58-.76,1.33-.46,2.86.79,3.89,6.6,5.44,12.74,11.5,17.82,18.88,1.97,2.86,3.65,5.99,5.46,8.99-.06.17-.12.35-.19.52-1.89.42-3.76.95-5.66,1.25-6.8,1.07-13.18-.13-18.8-5.05-3.86-3.38-6.76-7.72-9.09-12.6C3.41,22.74,1.37,15.52.11,7.99c-.36-2.17.09-3.07,1.93-3.75C10.48,1.11,19.12-.58,27.97.18c7.26.63,13.63,3.82,17.85,11.09,4.82,8.31,5.03,17.32,2.04,26.55-.29.89-.29,1.51.1,2.36,1.09,2.32,2.06,4.72,3.11,7.16.54-.87,1.03-1.99,1.78-2.8,1.47-1.58,1.72-3.5,1.95-5.7,1.03-9.8,4.75-17.51,13.01-21.31,3.33-1.54,6.85-1.82,10.4-1.7,6.35.21,12.56,1.32,18.56,3.86,2.55,1.08,2.95,1.9,2.3,4.93-1.65,7.71-4.35,14.85-8.89,20.87-6.21,8.23-14.06,10.95-23.17,9.09-2.25-.46-4.45-1.33-6.99-2.11Z"/>
      <path class="cls-1" d="m21.32,87.08c.05.37.08.66.13.95,1.86,10.27,3.72,20.55,5.59,30.82.35,1.88,1.09,2.48,2.97,2.48h39.34c2.03,0,2.61-.59,3.04-2.99,1.3-7.08,2.6-14.16,3.89-21.25.6-3.3,1.19-6.61,1.8-10.01H21.32Zm27.91,33.08s-9.69-1.84-9.54-10.55c.02-1.52.34-3.26,1.07-5.23l9.28-15.15,7.61,12.54s2.06,3.97,2.07,8.25c0,4.32-2.08,8.95-10.49,10.14Z"/>
      <path class="cls-2" d="m59.72,110.02c-.01-4.28-2.07-8.25-2.07-8.25l-7.61-12.54-9.28,15.15c-.73,1.97-1.05,3.71-1.07,5.23-3.1-3.2-5.1-8.32-2.13-16.33l3.8-6.2,8.74-14.26,8.66,14.26,1.62,2.67s6.71,12.93-.66,20.27Z"/>
    </g>
  </g>
</svg>