<?xml version="1.0" encoding="UTF-8"?>
<svg id="Layer_2" data-name="Layer 2" xmlns="http://www.w3.org/2000/svg" viewBox="0 0 233 238">
  <defs>
    <style>
      .cls-1 {
        fill: none;
        stroke: #20201f;
        stroke-linecap: square;
        stroke-linejoin: round;
        stroke-width: 9px;
      }

      .cls-2 {
        fill: #202020;
        stroke-width: 0px;
      }
    </style>
  </defs>
  <g id="Layer_2-2" data-name="Layer 2">
    <g>
      <polygon class="cls-1" points="4.5 47.5 115.5 4.5 115.5 145.5 4.5 188.5 4.5 47.5"/>
      <polygon class="cls-1" points="228.5 47.5 228.5 188.5 115.5 145.5 115.5 4.5 228.5 47.5"/>
      <polygon class="cls-1" points="115.5 233.5 228.5 188.5 115.5 145.5 4.5 188.5 115.5 233.5"/>
      <g>
        <path class="cls-2" d="m126.84,116.63c1.24-1.8,2.17-3.33,3.26-4.71,5.13-6.5,11.3-11.29,18.16-14.93,1.17-.62,1.69-1.56,1.54-2.92-.14-1.21-.76-1.96-1.77-2.13-.45-.08-.98,0-1.39.22-9.17,5.09-17.7,11.22-23.93,20.88-2.58,4-4.12,8.49-3.94,13.62,0,.21.04.41.07.77.47,0,.9,0,1.33,0,9.07,0,18.14,0,27.22,0,2.34,0,3.01.78,3.01,3.53,0,3.86,0,7.73,0,11.59,0,2.56-.71,3.37-2.93,3.37-20.6,0-41.21,0-61.81,0-2.34,0-2.99-.77-3-3.55,0-3.78,0-7.56,0-11.33,0-2.85.65-3.61,3.05-3.61,9,0,18,0,27,0h1.58c0-1.03.03-1.96,0-2.88-.11-3.12.01-6.3-.44-9.35-.35-2.39-1.14-4.85-2.23-6.91-5.67-10.63-12.45-20.18-21.05-27.81-1.34-1.19-2.77-2.26-4.2-3.3-1.29-.93-2.5-.66-3.21.58-.76,1.33-.46,2.86.79,3.89,6.6,5.44,12.74,11.5,17.82,18.88,1.97,2.86,3.65,5.99,5.46,8.99-.06.17-.12.35-.19.52-1.89.42-3.76.95-5.66,1.25-6.8,1.07-13.18-.13-18.8-5.05-3.86-3.38-6.76-7.72-9.09-12.6-3.21-6.73-5.25-13.95-6.5-21.48-.36-2.17.09-3.07,1.93-3.75,8.44-3.12,17.07-4.81,25.92-4.05,7.26.63,13.63,3.82,17.85,11.09,4.82,8.31,5.03,17.32,2.04,26.55-.29.89-.29,1.51.1,2.36,1.09,2.32,2.06,4.72,3.11,7.16.54-.87,1.03-1.99,1.78-2.8,1.47-1.58,1.72-3.5,1.95-5.7,1.03-9.8,4.75-17.51,13.01-21.31,3.33-1.54,6.85-1.82,10.4-1.7,6.35.21,12.56,1.32,18.56,3.86,2.55,1.08,2.95,1.9,2.3,4.93-1.65,7.71-4.35,14.85-8.89,20.87-6.21,8.23-14.06,10.95-23.17,9.09-2.25-.46-4.45-1.33-6.99-2.11Z"/>
        <path class="cls-2" d="m144.91,151.25c-.61,3.4-1.2,6.71-1.8,10.01-1.29,7.09-2.59,14.17-3.88,21.26-.44,2.39-1.01,2.98-3.05,2.98-13.11,0-26.23,0-39.34,0-1.88,0-2.62-.6-2.96-2.48-1.88-10.27-3.73-20.55-5.59-30.82-.05-.28-.08-.57-.13-.94h56.76Z"/>
      </g>
    </g>
  </g>
</svg>